<svg id="Layer_1" data-name="Layer 1" xmlns="http://www.w3.org/2000/svg" viewBox="0 0 137 419"><defs><style>.cls-1{fill:#00954f;}.cls-2{fill:#e20613;}</style></defs><title>MOX-No-text-logo</title><polygon class="cls-1" points="109.33 1.44 68.54 42.23 27.75 1.44 2.54 26.65 43.33 67.44 2.54 108.23 27.75 133.44 68.54 92.65 109.33 133.44 134.54 108.23 93.75 67.44 134.54 26.65 109.33 1.44"/><path class="cls-2" d="M68.54,234.81a29.71,29.71,0,1,1,29.7-29.7,29.7,29.7,0,0,1-29.7,29.7m0-89.11a59.41,59.41,0,1,0,59.4,59.41,59.41,59.41,0,0,0-59.4-59.41"/><polygon class="cls-2" points="12.11 286.94 12.11 316.65 60.31 351.97 12.11 387.3 12.11 417 124.97 417 124.97 387.3 62.88 387.3 96.27 361.23 96.27 342.72 62.88 316.65 124.97 316.65 124.97 286.94 12.11 286.94"/></svg>