<svg id="Layer_1" data-name="Layer 1" xmlns="http://www.w3.org/2000/svg" xmlns:xlink="http://www.w3.org/1999/xlink" viewBox="0 0 380 419"><defs><style>.cls-1{fill:none;}.cls-2{fill:#00954f;}.cls-3{clip-path:url(#clip-path);}.cls-4{fill:#e20613;}</style><clipPath id="clip-path"><rect class="cls-1" x="1.55" y="2.25" width="701.45" height="413.75"/></clipPath></defs><title>MOX-With text-logo</title><polygon class="cls-2" points="107.88 2.25 67.26 42.86 26.65 2.25 1.55 27.35 42.16 67.96 1.55 108.57 26.65 133.67 67.26 93.06 107.88 133.67 132.98 108.57 92.36 67.96 132.98 27.35 107.88 2.25"/><polygon class="cls-2" points="173.96 49.9 181.87 29.78 192.32 29.78 192.32 60.97 185.12 60.97 185.12 37.38 175.98 61.01 170.97 61.01 161.97 37.56 161.97 60.97 155.11 60.97 155.11 29.78 166.05 29.78 173.96 49.9"/><g class="cls-3"><path class="cls-2" d="M199,50.6V38.22h7.16V50.07c0,3,1.54,4.88,4.52,4.88s4.57-1.93,4.57-4.88V38.22h7.16V50.6c0,6.46-4,10.9-11.6,10.9-7.72,0-11.81-4.44-11.81-10.9"/><path class="cls-2" d="M236.33,52.32c-5.58-.36-9.13-2.73-9.13-7.43s4-7.29,10.58-7.29c8.57,0,10.94,4.39,11.42,6.63h-7.51a4.79,4.79,0,0,0-3.95-1.58c-2.11,0-3.3.71-3.3,1.8,0,.93.71,1.63,2.68,1.8,1,.14,1.8.14,3,.27,6.85.48,9.49,2.85,9.49,7.6s-3.56,7.46-11,7.46c-8.88,0-11.56-5-11.91-7.07h7.69c.13.48,1.23,1.94,4.22,1.94,2.5,0,3.69-.8,3.69-1.89s-.62-1.8-2.77-2Z"/><path class="cls-2" d="M260.27,46.61h10a4.82,4.82,0,0,0-5-3.78,4.87,4.87,0,0,0-5,3.78m17.18,3.11V51H260.14a5.47,5.47,0,0,0,5.62,5,5.3,5.3,0,0,0,4.4-1.75h7.07c-.35,2.67-3.6,7.33-11.47,7.33s-12.65-5-12.65-11.95c0-7.2,5-12,12.17-12s12.17,4.66,12.17,12.08"/><path class="cls-2" d="M282.06,50.6V38.22h7.16V50.07c0,3,1.54,4.88,4.52,4.88s4.57-1.93,4.57-4.88V38.22h7.16V50.6c0,6.46-4,10.9-11.6,10.9-7.72,0-11.81-4.44-11.81-10.9"/><path class="cls-2" d="M318.65,61h-7.12V38.22h7.12v3.42a8.57,8.57,0,0,1,7.25-3.91,8.39,8.39,0,0,1,8,4.75,9,9,0,0,1,8.25-4.75c5.67,0,9.23,4,9.23,9.8V61h-7.16V49c0-3-1.76-4.92-4.57-4.92S335,46,335,49V61h-7.16V49c0-3-1.75-4.92-4.57-4.92S318.65,46,318.65,49Z"/><path class="cls-2" d="M171,93.52c0-3.3-2.11-5.76-5.31-5.76s-5.36,2.46-5.36,5.76,2.19,5.75,5.36,5.75S171,96.81,171,93.52m7.16,0c0,7-5.31,12-12.47,12s-12.48-4.92-12.48-12,5.31-12,12.48-12,12.47,4.92,12.47,12"/><path class="cls-2" d="M193.64,88V104.9h-7.16V88h-5.89V82.14h5.89V79.07c0-4,2.32-6.5,7.07-6.5h10.37v5.35h-7.38c-2.11,0-2.9.93-2.9,2.82v1.4h7.51V88Z"/></g><polygon class="cls-2" points="217.09 73.71 244.55 73.71 244.55 79.9 224.56 79.9 224.56 86.01 235.98 86.01 235.98 92.2 224.56 92.2 224.56 104.9 217.09 104.9 217.09 73.71"/><g class="cls-3"><path class="cls-2" d="M259.53,96.72V95.14H254c-2.24,0-3.6.75-3.6,2.38,0,1.8,1.62,2.9,4.22,2.9,2.81,0,4.92-1.41,4.92-3.7m-7.16-6.06h7.16c0-2.11-1.59-3.69-4.53-3.69-2.55,0-3.64,1.37-3.87,1.85h-7.24c.35-2.2,3.12-7.25,11.11-7.25,7.38,0,11.42,3.69,11.42,9.18v6.94c0,1.23.4,1.71,1.58,1.85V105h-3.38c-2.55,0-4.17-1-4.83-2.81a8.61,8.61,0,0,1-7.21,3.25c-5.27,0-9.22-3.2-9.22-7.69s3.43-7.07,9-7.07"/></g><path class="cls-2" d="M272.57,82.14h7.16V104.9h-7.16Zm-.18-10h7.47v7h-7.47Z"/><rect class="cls-2" x="286.41" y="72.56" width="7.16" height="32.33"/><g class="cls-3"><path class="cls-2" d="M299.72,94.53V82.14h7.16V94c0,2.94,1.53,4.88,4.52,4.88S316,96.94,316,94V82.14h7.16V94.53c0,6.46-4,10.89-11.6,10.89-7.73,0-11.81-4.43-11.81-10.89"/><path class="cls-2" d="M336.31,104.9h-7.12V82.14h7.12V85.7c.48-1.06,2.1-3.6,6.89-3.6h4.88v7h-6.24c-4,0-5.53,1.49-5.53,4.65Z"/><path class="cls-2" d="M358.36,90.53h10a5.2,5.2,0,0,0-10,0m17.17,3.12v1.23h-17.3a5.47,5.47,0,0,0,5.62,5,5.25,5.25,0,0,0,4.39-1.76h7.07c-.35,2.68-3.6,7.34-11.46,7.34s-12.65-5-12.65-12c0-7.21,5-12,12.16-12s12.17,4.66,12.17,12.08"/><path class="cls-4" d="M67.27,234.6A29.57,29.57,0,1,1,96.84,205,29.57,29.57,0,0,1,67.27,234.6m0-88.71A59.14,59.14,0,1,0,126.41,205a59.14,59.14,0,0,0-59.14-59.14"/></g><polygon class="cls-4" points="11.08 286.51 11.08 316.08 59.07 351.26 11.08 386.43 11.08 416 123.45 416 123.45 386.43 61.63 386.43 94.88 360.47 94.88 342.04 61.63 316.08 123.45 316.08 123.45 286.51 11.08 286.51"/><rect class="cls-1" x="1.55" y="2.25" width="701.45" height="413.75"/></svg>